<svg width="330" height="320" viewBox="0 0 330 320" fill="none" xmlns="http://www.w3.org/2000/svg">
<path d="M324.624 260.994C303.542 308.522 199.809 303.421 173.107 302.107C158.707 301.399 34.144 296.217 17.5861 240.929C6.65313 204.423 47.2179 160.846 24.3562 128.383C20.1106 122.354 11.1578 113.133 11.1001 99.3384C11.1001 99.3384 11.0424 85.7327 22.8218 71.7513C57.7266 30.322 316.969 23.7941 322.058 67.2534C323.223 77.2122 309.594 77.9069 299.419 97.3933C270.28 153.2 345.321 214.335 324.624 260.994Z" fill="#F4F7FA"/>
<path d="M223.727 266.516C219.006 265.038 215.431 261.112 214.361 256.231L206.965 222.528L148.551 225.576L141.944 260.925C141.019 265.876 145.134 270.759 149.808 272.499L174.421 281.66C178.999 283.364 183.9 283.991 188.752 283.494L240.357 278.213C241.865 278.059 243.058 276.851 243.208 275.324C243.359 273.798 244.389 272.07 242.94 271.616L223.727 266.516Z" fill="#97A6B7"/>
<path d="M224.271 264.45C219.556 262.991 215.985 259.115 214.916 254.296L207.535 221.017L150.546 224.018L143.939 258.924C143.013 263.812 145.757 268.654 150.427 270.37L175.014 279.412C179.586 281.093 184.482 281.712 189.33 281.221L240.884 275.997C242.391 275.844 243.582 274.651 243.733 273.144C243.884 271.637 242.953 270.231 241.505 269.784L224.273 264.45H224.271Z" fill="url(#paint0_linear_1661_3378)"/>
<path d="M316.514 197.187L313.991 45.5527C313.939 42.4432 311.333 39.8395 308.191 39.7648L47.5074 33.6273C43.5402 33.5334 40.3334 36.3272 40.3911 39.835L43.1793 207.412L316.513 197.185L316.514 197.187Z" fill="url(#paint1_linear_1661_3378)"/>
<path d="M48.8372 63.0237L51.0154 193.925C51.0697 197.192 54.1328 199.73 57.8126 199.564L304.935 188.419C307.885 188.286 310.253 185.793 310.204 182.879L308.261 66.1298L48.8383 63.0237H48.8372Z" fill="url(#paint2_linear_1661_3378)"/>
<path d="M308.261 66.1298L308.038 52.7311C307.991 49.8762 305.592 47.4921 302.699 47.4332L55.0595 42.3175C51.451 42.2428 48.5338 44.8001 48.5881 48.0013L48.8382 63.0237L308.261 66.1298Z" fill="url(#paint3_linear_1661_3378)"/>
<path d="M66.7586 52.5309C66.7778 53.6556 65.7662 54.5518 64.5 54.5337C63.2316 54.5145 62.186 53.5855 62.1668 52.4573C62.1475 51.3292 63.1625 50.433 64.4321 50.4556C65.6995 50.4771 66.7405 51.4072 66.7586 52.532V52.5309Z" fill="#9D3060"/>
<path d="M76.6415 52.6905C76.6596 53.8084 75.6616 54.7001 74.409 54.6808C73.1552 54.6616 72.1221 53.7383 72.1029 52.6169C72.0848 51.4955 73.0874 50.6039 74.3411 50.6265C75.5937 50.648 76.6223 51.5725 76.6404 52.6905H76.6415Z" fill="#9D3060"/>
<path d="M86.409 52.8488C86.4271 53.9611 85.4404 54.8471 84.2025 54.8279C82.9635 54.8097 81.9417 53.8909 81.9236 52.7752C81.9055 51.6595 82.8967 50.7747 84.1357 50.7962C85.3737 50.8177 86.3909 51.7365 86.409 52.8476V52.8488Z" fill="#9D3060"/>
<path d="M43.1804 207.414L43.7371 240.88C43.796 244.388 47.0944 247.066 51.056 246.833L311.382 231.486C314.519 231.302 317.038 228.606 316.986 225.497L316.499 196.215L43.1804 207.415V207.414Z" fill="white"/>
<path d="M88.4445 22.8538C98.6453 39.285 107.777 57.0175 98.7415 106.25C89.8928 154.47 90.3296 177.69 98.72 197.72L284.692 189.333C279.203 179.087 278.255 172.399 277.511 161.294C274.767 120.346 299.253 80.2481 284.599 37.4395C278.232 18.8391 267.028 7.65378 258.923 1.25828C194.836 0.838475 130.747 0.418672 66.6588 0C72.9513 4.3474 81.3814 11.4773 88.4445 22.8538Z" fill="url(#paint4_linear_1661_3378)"/>
<path d="M263.943 156.678C263.95 157.089 263.959 157.501 263.97 157.913C263.981 158.3 263.61 158.622 263.133 158.638L108.006 163.435C107.481 163.452 107.054 163.095 107.094 162.67C107.132 162.259 107.171 161.844 107.209 161.425C107.242 161.065 107.602 160.781 108.046 160.768L263.03 155.976C263.524 155.96 263.936 156.279 263.943 156.679V156.678Z" fill="#D8DEE8"/>
<path d="M264.422 143.582C264.385 143.995 264.351 144.408 264.32 144.821C264.292 145.185 263.929 145.472 263.48 145.484L108.74 149.861C108.221 149.876 107.798 149.526 107.83 149.105C107.862 148.693 107.894 148.279 107.925 147.861C107.953 147.497 108.317 147.207 108.766 147.195L263.513 142.818C264.036 142.803 264.458 143.159 264.422 143.582Z" fill="#D8DEE8"/>
<path d="M265.016 169.73C265.077 170.139 265.141 170.549 265.207 170.956C265.275 171.37 264.893 171.739 264.38 171.757L109.711 176.983C109.184 177.001 108.755 176.64 108.796 176.213C108.835 175.803 108.876 175.389 108.918 174.969C108.953 174.611 109.31 174.331 109.753 174.316L264.106 169.101C264.564 169.085 264.959 169.36 265.014 169.73H265.016Z" fill="#D8DEE8"/>
<path d="M266.067 130.46C266 130.876 265.935 131.291 265.871 131.707C265.818 132.052 265.465 132.315 265.035 132.326L109.663 136.307C109.15 136.321 108.731 135.977 108.756 135.561C108.78 135.149 108.804 134.735 108.828 134.319C108.85 133.949 109.216 133.654 109.674 133.642L265.168 129.658C265.709 129.644 266.137 130.026 266.067 130.461V130.46Z" fill="#D8DEE8"/>
<path d="M267.921 182.719C268.045 183.126 268.17 183.532 268.299 183.938C268.438 184.376 268.051 184.804 267.496 184.824L112.476 190.529C111.96 190.548 111.534 190.204 111.556 189.785C111.579 189.373 111.604 188.957 111.631 188.535C111.654 188.17 112.015 187.878 112.465 187.863L267.03 182.174C267.449 182.159 267.822 182.388 267.922 182.719H267.921Z" fill="#D8DEE8"/>
<path d="M268.459 117.337C268.376 117.752 268.294 118.167 268.211 118.584C268.144 118.92 267.795 119.17 267.375 119.18L112.07 122.744C111.563 122.756 111.148 122.42 111.165 122.008C111.182 121.596 111.199 121.183 111.215 120.766C111.23 120.392 111.601 120.09 112.064 120.08L267.565 116.511C268.116 116.498 268.547 116.895 268.459 117.337Z" fill="#D8DEE8"/>
<path d="M270.42 38.5405C270.811 38.5394 271.159 38.7465 271.27 39.0509C271.421 39.465 271.57 39.8814 271.713 40.3012C271.713 40.3046 271.716 40.3069 271.717 40.3103C271.869 40.7584 271.451 41.1997 270.877 41.2031L111.047 41.8831C110.629 41.8854 110.267 41.6444 110.182 41.3117C110.076 40.8975 109.968 40.4879 109.858 40.0806C109.739 39.6381 110.148 39.224 110.706 39.2217L270.419 38.5428L270.42 38.5405Z" fill="#D8DEE8"/>
<path d="M274.711 52.0433C274.782 52.4597 274.85 52.8761 274.916 53.2925C274.981 53.7135 274.577 54.0857 274.054 54.0891L113.652 55.3135C113.202 55.3169 112.82 55.0408 112.77 54.6775C112.712 54.2634 112.652 53.8515 112.591 53.4441C112.529 53.0243 112.927 52.6566 113.448 52.6521L273.826 51.4289C274.268 51.4255 274.648 51.6891 274.71 52.0444L274.711 52.0433Z" fill="#D8DEE8"/>
<path d="M264.505 27.6142L106.391 28.2671C106.019 28.2682 105.686 28.077 105.56 27.7918C104.046 24.3632 102.327 21.1338 100.387 18.0085C99.4092 16.4334 98.3829 14.8956 97.3136 13.394C96.9741 12.9165 97.3917 12.3225 98.0695 12.3247L253.574 12.7649C253.831 12.7649 254.077 12.8565 254.244 13.015C258.545 17.0693 262.233 21.6045 265.288 26.5912C265.576 27.0608 265.152 27.6108 264.506 27.6142H264.505Z" fill="#D8DEE8"/>
<path d="M271.141 104.226C271.056 104.641 270.971 105.056 270.886 105.473C270.817 105.809 270.465 106.058 270.045 106.065L114.244 109.203C113.743 109.213 113.332 108.88 113.342 108.473C113.352 108.058 113.362 107.644 113.372 107.232C113.381 106.853 113.755 106.547 114.224 106.538L270.249 103.396C270.801 103.385 271.231 103.784 271.141 104.224V104.226Z" fill="#D8DEE8"/>
<path d="M273.621 91.1381C273.551 91.5534 273.479 91.9676 273.407 92.3828C273.347 92.728 272.987 92.9871 272.557 92.9939L115.749 95.687C115.254 95.696 114.848 95.369 114.849 94.9684C114.851 94.5531 114.853 94.1401 114.855 93.7282C114.856 93.3435 115.235 93.0312 115.709 93.0233L272.726 90.3268C273.267 90.3178 273.694 90.7036 273.62 91.1381H273.621Z" fill="#D8DEE8"/>
<path d="M275.391 78.0777C275.351 78.4941 275.309 78.9094 275.266 79.3258C275.229 79.6879 274.858 79.9685 274.41 79.9742L115.632 82.2113C115.147 82.2181 114.746 81.9024 114.737 81.5086C114.727 81.0933 114.717 80.6803 114.706 80.2707C114.694 79.878 115.079 79.5555 115.563 79.5487L274.497 77.3094C275.015 77.3026 275.433 77.6591 275.392 78.0777H275.391Z" fill="#D8DEE8"/>
<path d="M275.925 65.048C275.933 65.4644 275.937 65.8797 275.941 66.2961C275.943 66.6853 275.557 67.0033 275.076 67.0078L115.025 68.7538C114.554 68.7594 114.16 68.4585 114.134 68.0771C114.106 67.6618 114.075 67.25 114.045 66.8415C114.014 66.4375 114.405 66.0969 114.905 66.0924L275.031 64.3453C275.516 64.3396 275.918 64.6553 275.926 65.048H275.925Z" fill="#D8DEE8"/>
<path d="M8.9386 124.073C3.83872 138.963 0.620605 156.242 0.620605 173.75C0.620605 231.004 30.4617 278.016 69.689 291.054C69.9629 290.933 71.2189 291.473 71.4916 291.349C108.457 274.583 133.371 228.464 133.371 176.056C133.371 159.913 130.258 146.158 125.867 131.96L71.1453 120.859L69.0825 115.482L8.9386 124.073Z" fill="url(#paint5_linear_1661_3378)"/>
<path d="M10.4447 125.195C5.35046 140.08 2.51367 156.635 2.51367 174.131C2.51367 231.347 32.3152 278.325 71.4916 291.35C108.873 274.895 135.092 229.174 135.092 176.419C135.092 160.287 132.673 144.834 128.29 130.645L69.0825 115.483L10.4447 125.195Z" fill="url(#paint6_linear_1661_3378)"/>
<path d="M108.577 185.451C108.577 206.276 92.442 223.36 71.875 223.617C50.5364 223.884 32.6421 206.061 32.6421 183.8C32.6421 161.539 50.5375 144.495 71.875 145.689C92.442 146.841 108.577 164.625 108.577 185.45V185.451Z" fill="#F4F7FA"/>
<path d="M87.2097 173.392C87.2097 182.088 80.3967 189.011 71.8841 188.854C63.2504 188.694 56.1613 181.331 56.1613 172.409C56.1613 163.487 63.2504 156.573 71.8841 156.96C80.3967 157.342 87.2097 164.697 87.2097 173.391V173.392Z" fill="url(#paint7_linear_1661_3378)"/>
<path d="M71.875 223.617C81.0303 223.503 89.2929 220.062 95.6341 214.488C93.4819 203.051 83.7641 194.287 71.875 194.128C59.7324 193.965 49.4149 202.801 47.0806 214.711C53.9061 220.399 62.5692 223.734 71.875 223.617Z" fill="url(#paint8_linear_1661_3378)"/>
<path d="M71.8683 224.563C61.354 224.699 51.3251 220.584 43.677 212.919C35.9485 205.172 31.6622 194.807 31.6622 183.789C31.6622 172.771 36.0119 162.438 43.8512 155.01C51.4835 147.78 61.457 144.152 71.8932 144.744C82.1405 145.323 91.6353 149.921 98.6814 157.642C105.653 165.282 109.466 175.143 109.466 185.46C109.466 195.778 105.651 205.481 98.6746 212.821C91.624 220.241 82.1246 224.427 71.8728 224.562C71.8706 224.562 71.8683 224.562 71.8672 224.562L71.8683 224.563ZM71.0943 146.6C61.4479 146.264 52.2654 149.718 45.2012 156.423C37.7511 163.493 33.6187 173.237 33.6187 183.812C33.6187 194.386 37.6956 204.176 45.0496 211.558C52.322 218.86 61.8643 222.788 71.8683 222.671C71.8706 222.671 71.8717 222.671 71.874 222.671C91.8163 222.434 107.684 205.734 107.684 185.441C107.684 165.148 91.8073 147.74 71.8547 146.634C71.6013 146.62 71.3467 146.608 71.0932 146.6H71.0943Z" fill="white"/>
<path style="mix-blend-mode:multiply" opacity="0.3" d="M71.4916 286.072L71.3027 286.008C53.5182 280.038 37.1888 266.169 25.4966 246.85C13.2578 226.627 6.71631 202.102 6.71631 176.155C6.71631 160.177 9.2125 144.76 14.1132 130.395L14.2151 130.097L69.2387 120.804L69.3474 120.831L125.009 134.905L125.1 135.197C129.353 148.924 131.502 163.361 131.502 178.164C131.502 202.203 125.845 225.084 115.032 244.535C104.412 263.639 89.0781 278.389 71.6806 285.99L71.4916 286.073V286.072ZM15.0909 131.086C10.301 145.248 7.86256 160.434 7.86256 176.173C7.86256 227.508 34.61 272.389 71.4928 284.922C106.779 269.409 130.519 225.77 130.519 178.148C130.519 163.55 128.415 149.314 124.249 135.773L69.2489 121.904L15.092 131.087L15.0909 131.086Z" fill="url(#paint9_linear_1661_3378)"/>
<path style="mix-blend-mode:multiply" opacity="0.3" d="M135.092 176.418C135.092 160.286 132.673 144.833 128.29 130.644L70.9937 115.972C76.8144 127.155 81.9765 138.425 83.1126 151.457C84.4512 166.808 76.9491 176.374 69.7717 195.11C67.0175 202.298 58.334 225.564 59.753 251.112C60.7419 268.91 66.3669 282.69 70.5875 291.037C70.8896 291.142 71.1895 291.251 71.4928 291.35C108.875 274.896 135.094 229.174 135.094 176.419L135.092 176.418Z" fill="url(#paint10_linear_1661_3378)"/>
<mask id="mask0_1661_3378" style="mask-type:luminance" maskUnits="userSpaceOnUse" x="202" y="68" width="129" height="252">
<path d="M330 68.7539H202.674V320H330V68.7539Z" fill="white"/>
</mask>
<g mask="url(#mask0_1661_3378)">
<path d="M255.921 354.624C254.834 344.861 251.172 339.598 251.859 330.26C252.998 314.771 266.298 300.62 273.201 286.376C277.926 276.627 288.758 254.042 281.092 244.854C271.444 233.289 253.156 238.696 241.484 241.762C227.866 261.731 220.781 290.768 218.065 313.244C216.555 325.743 217.771 341.115 220.007 354.624H255.922H255.921Z" fill="url(#paint11_linear_1661_3378)"/>
<path style="mix-blend-mode:multiply" opacity="0.3" d="M245.801 265.019C250.695 271.689 232.213 306.162 235.087 323.563C236.211 330.369 241.758 343.258 240.554 353.273C240.499 353.721 240.438 354.172 240.37 354.624H255.952C254.902 344.859 251.085 339.609 251.823 330.26C253.047 314.756 266.282 300.645 273.189 286.367C277.916 276.595 288.775 254.123 281.078 244.824C271.388 233.118 253.283 239.191 241.38 241.329C237.364 248.813 233.314 255.686 230.451 263.589C233.618 261.444 244.539 263.301 245.8 265.019H245.801Z" fill="url(#paint12_linear_1661_3378)"/>
<path d="M269.088 354.624H305.132C304.924 351.193 304.679 348.388 304.512 346.903C302.92 332.765 298.918 328.395 299.03 317.972C299.203 301.922 305.968 297.537 310.387 280.758C313.335 269.565 312.904 249.4 307.13 236.994C292.532 240.077 277.63 244.649 262.921 248.145C262.43 283.087 264.361 316.593 268.692 351.493C268.821 352.535 268.954 353.58 269.088 354.625V354.624Z" fill="url(#paint13_linear_1661_3378)"/>
<path d="M249.328 123.401C241.97 125.957 232.799 135.112 228.013 140.122C216.972 151.675 196.923 189.953 210.043 202.791C218.968 211.527 233.845 207.093 240.096 197.662C244.695 190.726 241.492 184.714 239.97 172.626C238.331 159.619 242.076 136.614 249.328 123.4V123.401Z" fill="url(#paint14_linear_1661_3378)"/>
<path style="mix-blend-mode:multiply" opacity="0.3" d="M291.926 354.624H305.133C304.917 351.192 304.667 348.388 304.501 346.903C302.928 332.771 298.922 328.386 299.03 317.972C299.195 301.937 305.965 297.509 310.393 280.765C313.347 269.595 312.912 249.293 307.107 237.087C303.008 237.379 298.514 239.139 294.246 240.057C297.475 250.456 298.278 261.441 296.276 271.99C293.51 286.555 283.269 295.249 282.115 310.184C281.078 323.62 288.845 332.263 291.227 347.441C291.61 349.883 291.831 352.268 291.925 354.624H291.926Z" fill="url(#paint15_linear_1661_3378)"/>
<path d="M243.199 127.253C238.313 133.562 236.49 133.126 232.832 141.686C227.32 154.583 232.352 168.859 233.623 184.415C235.017 201.477 235.636 233.317 227.719 250.108C227.581 250.4 227.346 249.768 227.534 250.891C230.407 268.098 310.362 252.728 309.971 246.369C308.029 214.787 284.607 146.406 288.769 123.301C286.453 123.354 281.773 121.124 279.887 120.679C271.798 118.769 264.562 118.688 257.04 120.026C254.29 120.516 252.923 121.21 250.936 122.068C247.707 123.463 245.668 125.421 243.197 127.253H243.199Z" fill="url(#paint16_linear_1661_3378)"/>
<path d="M271.522 101.964C271.63 107.274 273.684 114.85 274.566 119.579C275.447 124.309 265.729 124.908 262.46 122.831C259.458 120.925 261.431 115.341 264.129 112.341C266.828 109.342 268.766 105.032 271.522 101.962V101.964Z" fill="url(#paint17_linear_1661_3378)"/>
<path d="M256.824 100.902C252.179 97.1285 250.783 83.1233 255.213 80.1893C257.362 78.7658 261.486 85.5324 264.04 86.7658C267.47 88.4224 276.66 90.045 278.612 93.5686C280.084 96.2255 277.58 101.961 276.565 104.017C275.417 106.343 275.238 105.571 273.812 107.247C271.835 109.57 269.188 112.304 267.19 114.901C266.657 113.011 266.777 113.006 265.874 110.574C265.527 109.638 262.888 105.731 261.622 104.233C260.817 103.282 257.392 101.364 256.824 100.902Z" fill="#26264F"/>
<path d="M271.645 111.231C268.327 114.561 266.801 118.51 260.499 117.604C254.857 116.793 253.347 102.85 258.27 98.517C259.913 97.072 262.395 96.9849 264.531 97.5269C265.793 97.8471 267.129 98.6234 268.394 99.05C269.561 99.4426 270.509 98.8689 271.612 99.9903C272.992 101.395 272.248 105.15 271.566 106.979C272.124 106.448 272.746 105.706 273.494 105.44C274.021 105.252 274.914 104.326 275.449 105.074C276.324 106.295 274.637 108.76 273.63 109.787C273.169 110.257 272.218 110.85 271.646 111.231H271.645Z" fill="url(#paint18_linear_1661_3378)"/>
<path d="M271.979 99.0794C271.23 99.5535 272.653 100.914 272.505 102.323C272.219 105.06 271.551 110.007 267.601 110.645C265.266 111.022 262.721 109.027 260.249 108.876C258.72 108.783 257.041 108.934 255.543 109.405C254.683 112.374 254.832 116.985 257.445 118.696C260.261 120.538 262.012 119.448 264.883 118.492C266.804 117.852 268.881 116.086 270.025 114.129C271.217 112.09 272.066 109.966 273.244 107.823C273.895 106.64 274.68 105.16 275.452 103.916C275.661 103.577 275.98 103.037 276.124 102.595C275.438 101.989 273.063 98.3936 271.979 99.0805V99.0794Z" fill="#26264F"/>
<path d="M258.717 111.282C259.899 111.879 261.254 111.819 262.511 111.785C262.573 111.784 262.84 111.665 262.745 111.898C262.388 112.774 260.699 113.14 259.825 112.927C259.205 112.775 258.138 112.07 258.221 111.395C258.256 111.11 258.603 111.346 258.716 111.282H258.717Z" fill="url(#paint19_linear_1661_3378)"/>
<path style="mix-blend-mode:multiply" opacity="0.3" d="M254.552 227.739C252.239 225.334 248.562 221.508 248.126 215.975C247.007 201.748 268.819 195.298 267.478 183.738C266.434 174.753 252.985 176.321 244.652 160.638C243.222 157.945 237.971 147.703 240.985 135.738C242.189 130.959 244.341 127.374 245.966 125.109C245.046 125.815 244.154 126.543 243.198 127.251C238.313 133.561 236.489 133.125 232.831 141.685C227.319 154.582 232.351 168.858 233.622 184.414C235.016 201.476 235.635 233.316 227.717 250.107C227.579 250.399 227.345 249.767 227.533 250.891C230.406 268.098 310.361 252.729 309.969 246.369C309.735 242.562 309.186 238.214 308.414 233.481C305.585 234.386 271.109 244.964 254.551 227.741L254.552 227.739Z" fill="url(#paint20_linear_1661_3378)"/>
<path d="M229.178 173.956C224.663 173.915 227.664 171.064 226.317 171.515C225.472 171.798 205.41 193.205 212.442 203.778C219.147 213.861 244.957 205.781 254.018 202.126C259.054 200.095 274 193.829 282.618 178.771C283.392 177.417 283.967 176.254 284.346 175.445C264.092 173.627 254.419 173.388 249.364 173.568C246.121 173.682 242.862 174.08 229.179 173.956H229.178Z" fill="url(#paint21_linear_1661_3378)"/>
<path d="M236.708 171.558C237.461 176.073 240.379 189.987 252.679 200.982C255.125 203.168 271.694 217.477 293.909 212.792C311.27 209.13 326.289 195.102 329.202 178.229C334.891 145.291 291.991 118.192 282.612 123.524C276.316 127.103 275.447 150.799 285.562 162.341C287.761 164.849 291.798 168.29 291.379 172.836C290.979 177.2 286.696 180.119 284.269 181.727C272.82 189.311 246.348 172.03 239.483 170.805C238.992 170.809 238.603 170.36 236.706 171.558H236.708Z" fill="url(#paint22_linear_1661_3378)"/>
<path d="M282.618 178.772C283.231 180.083 286.044 181.339 287.376 181.13C289.61 180.778 291.13 179.185 292.51 178.461C293.742 177.815 296.515 176.891 296.642 175.886C296.883 173.983 293.796 173.576 291.99 173.467C289.459 173.314 286.8 174.161 284.345 175.447C283.766 176.566 283.112 177.667 282.617 178.773L282.618 178.772Z" fill="url(#paint23_linear_1661_3378)"/>
<path d="M232.765 173.979C241.619 174.854 243.63 174.164 243.843 173.378C244.115 172.375 241.659 170.469 239.111 170.227C236.525 169.983 233.974 171.465 232.765 173.979Z" fill="url(#paint24_linear_1661_3378)"/>
</g>
<defs>
<linearGradient id="paint0_linear_1661_3378" x1="192.349" y1="234.797" x2="193.79" y2="268.098" gradientUnits="userSpaceOnUse">
<stop offset="0.49" stop-color="#EBEFF2"/>
<stop offset="1" stop-color="white"/>
</linearGradient>
<linearGradient id="paint1_linear_1661_3378" x1="198.91" y1="193.258" x2="95.3141" y2="-148.815" gradientUnits="userSpaceOnUse">
<stop stop-color="#444B8C"/>
<stop offset="1" stop-color="#26264F"/>
</linearGradient>
<linearGradient id="paint2_linear_1661_3378" x1="175.623" y1="48.8745" x2="189.864" y2="337.64" gradientUnits="userSpaceOnUse">
<stop stop-color="#FFC444"/>
<stop offset="1" stop-color="#F36F56"/>
</linearGradient>
<linearGradient id="paint3_linear_1661_3378" x1="120.92" y1="-137.24" x2="211.776" y2="170.503" gradientUnits="userSpaceOnUse">
<stop stop-color="#FF9085"/>
<stop offset="1" stop-color="#FB6FBB"/>
</linearGradient>
<linearGradient id="paint4_linear_1661_3378" x1="152.162" y1="-89.6732" x2="180.248" y2="59.4109" gradientUnits="userSpaceOnUse">
<stop stop-color="#EBEFF2"/>
<stop offset="1" stop-color="white"/>
</linearGradient>
<linearGradient id="paint5_linear_1661_3378" x1="129.145" y1="221.499" x2="22.1913" y2="187.43" gradientUnits="userSpaceOnUse">
<stop stop-color="#311944"/>
<stop offset="1" stop-color="#A03976"/>
</linearGradient>
<linearGradient id="paint6_linear_1661_3378" x1="90.041" y1="295.164" x2="59.8615" y2="124.917" gradientUnits="userSpaceOnUse">
<stop stop-color="#FF9085"/>
<stop offset="1" stop-color="#FB6FBB"/>
</linearGradient>
<linearGradient id="paint7_linear_1661_3378" x1="54.7615" y1="94.689" x2="85.6267" y2="237.337" gradientUnits="userSpaceOnUse">
<stop stop-color="#AA80F9"/>
<stop offset="1" stop-color="#6165D7"/>
</linearGradient>
<linearGradient id="paint8_linear_1661_3378" x1="45.9671" y1="97.2383" x2="76.6229" y2="238.915" gradientUnits="userSpaceOnUse">
<stop stop-color="#AA80F9"/>
<stop offset="1" stop-color="#6165D7"/>
</linearGradient>
<linearGradient id="paint9_linear_1661_3378" x1="87.8923" y1="283.164" x2="59.34" y2="122.097" gradientUnits="userSpaceOnUse">
<stop stop-color="#FF9085"/>
<stop offset="1" stop-color="#FB6FBB"/>
</linearGradient>
<linearGradient id="paint10_linear_1661_3378" x1="59.5968" y1="203.661" x2="135.092" y2="203.661" gradientUnits="userSpaceOnUse">
<stop stop-color="#FF9085"/>
<stop offset="1" stop-color="#FB6FBB"/>
</linearGradient>
<linearGradient id="paint11_linear_1661_3378" x1="204.958" y1="432.442" x2="258.226" y2="258.999" gradientUnits="userSpaceOnUse">
<stop stop-color="#AA80F9"/>
<stop offset="1" stop-color="#6165D7"/>
</linearGradient>
<linearGradient id="paint12_linear_1661_3378" x1="205.583" y1="431.737" x2="258.631" y2="259.008" gradientUnits="userSpaceOnUse">
<stop stop-color="#AA80F9"/>
<stop offset="1" stop-color="#6165D7"/>
</linearGradient>
<linearGradient id="paint13_linear_1661_3378" x1="251.856" y1="349.247" x2="325.938" y2="238.951" gradientUnits="userSpaceOnUse">
<stop stop-color="#AA80F9"/>
<stop offset="1" stop-color="#6165D7"/>
</linearGradient>
<linearGradient id="paint14_linear_1661_3378" x1="285.501" y1="217.631" x2="216.658" y2="150.358" gradientUnits="userSpaceOnUse">
<stop stop-color="#311944"/>
<stop offset="1" stop-color="#893976"/>
</linearGradient>
<linearGradient id="paint15_linear_1661_3378" x1="260.869" y1="355.103" x2="334.798" y2="245.036" gradientUnits="userSpaceOnUse">
<stop stop-color="#AA80F9"/>
<stop offset="1" stop-color="#6165D7"/>
</linearGradient>
<linearGradient id="paint16_linear_1661_3378" x1="284.74" y1="276.139" x2="241.109" y2="130.163" gradientUnits="userSpaceOnUse">
<stop stop-color="#311944"/>
<stop offset="1" stop-color="#893976"/>
</linearGradient>
<linearGradient id="paint17_linear_1661_3378" x1="274.809" y1="130.463" x2="260.324" y2="98.1575" gradientUnits="userSpaceOnUse">
<stop stop-color="#FFC444"/>
<stop offset="1" stop-color="#F36F56"/>
</linearGradient>
<linearGradient id="paint18_linear_1661_3378" x1="265.146" y1="100.585" x2="268.948" y2="165.339" gradientUnits="userSpaceOnUse">
<stop stop-color="#FFC444"/>
<stop offset="1" stop-color="#F36F56"/>
</linearGradient>
<linearGradient id="paint19_linear_1661_3378" x1="259.862" y1="108.872" x2="261.803" y2="117.592" gradientUnits="userSpaceOnUse">
<stop stop-color="#FFC444"/>
<stop offset="1" stop-color="#F36F56"/>
</linearGradient>
<linearGradient id="paint20_linear_1661_3378" x1="279.747" y1="278.217" x2="232.808" y2="134.952" gradientUnits="userSpaceOnUse">
<stop stop-color="#311944"/>
<stop offset="1" stop-color="#893976"/>
</linearGradient>
<linearGradient id="paint21_linear_1661_3378" x1="278.132" y1="218.794" x2="214.459" y2="156.574" gradientUnits="userSpaceOnUse">
<stop stop-color="#311944"/>
<stop offset="1" stop-color="#893976"/>
</linearGradient>
<linearGradient id="paint22_linear_1661_3378" x1="276.912" y1="279.785" x2="286.607" y2="114.27" gradientUnits="userSpaceOnUse">
<stop offset="0.1" stop-color="#311944"/>
<stop offset="0.69" stop-color="#6D2E66"/>
<stop offset="1" stop-color="#893976"/>
</linearGradient>
<linearGradient id="paint23_linear_1661_3378" x1="286.118" y1="171.439" x2="291.306" y2="182.366" gradientUnits="userSpaceOnUse">
<stop stop-color="#FFC444"/>
<stop offset="1" stop-color="#F36F56"/>
</linearGradient>
<linearGradient id="paint24_linear_1661_3378" x1="238.15" y1="176.039" x2="238.634" y2="168.439" gradientUnits="userSpaceOnUse">
<stop stop-color="#FFC444"/>
<stop offset="1" stop-color="#F36F56"/>
</linearGradient>
</defs>
</svg>
